<svg xmlns="http://www.w3.org/2000/svg" xml:space="preserve" width="512" height="512" id="vk">
  <path fill="#1A1A1A" fill-rule="evenodd" d="M434.478 16H77.521C43.72 16 16 43.719 16 77.521v356.957C16 468.282 43.72 496 77.521 496h356.957C468.281 496 496 468.282 496 434.479V77.521C496 43.719 468.281 16 434.478 16zM365.03 269.393c1.588 15.043 54.295 46.569 50.353 70.822-1.774 10.868-20.013 8.945-36.191 9.457-14.941.482-29.553-.493-36.169-3.145-10.934-4.375-39.648-42.391-47.208-40.903-16.799 3.271-10.716 38.443-15.725 40.903-7.176 3.519-30.469 2.467-39.302 1.56-47.333-7.951-74.772-39.67-100.688-80.239-31.686-49.597-50.429-86.834-42.473-91.261 8.746-4.857 33.231-3.825 58.206-3.16 7.435.224 29.047 54.038 34.598 62.973 22.531 36.048 29.585 9.421 29.9 6.284 6.107-64.668-9.724-61.751-18.883-62.956 6.905-20.966 55.045-17.301 55.045-17.301s16.105 3.896 22.025 7.864c2.435 1.652 5.166 6.87 4.713 23.616-.643 25.215-3.203 59.608 7.878 59.777 8.547.125 22.088-19.979 33.035-40.903 9.682-18.513 17.137-36.461 20.438-37.758 3.576-1.409 19.04-1.506 34.609-1.597 15.246-.072 30.615-.199 34.616 3.16 8.064 6.805-5.959 28.878-18.892 47.196-10.587 15.061-31.02 34.885-29.885 45.611z" clip-rule="evenodd"></path>
</svg>
