<?xml version="1.0" encoding="utf-8"?><svg viewBox="0 0 512 512" xmlns="http://www.w3.org/2000/svg" xmlns:xlink="http://www.w3.org/1999/xlink"><style>:root>svg{display:none}:root>svg:target{display:block}</style><svg fill="none" viewBox="0 0 23 20" id="calculation" xmlns="http://www.w3.org/2000/svg"><path d="M21.5.91h-20v17.931h20V.911ZM11.155 9.876v8.965M1.5 9.876h19.31M6.328 12.634v3.449M4.259 14.013h4.138M13.914 13.324h4.827M13.914 15.393h4.827" stroke="#FEFEFE" stroke-width="1.367" stroke-miterlimit="22.926" stroke-linecap="round" stroke-linejoin="round"/></svg><svg fill="none" viewBox="0 0 27 24" id="comment" xmlns="http://www.w3.org/2000/svg"><path clip-rule="evenodd" d="M5 .75h18.75c1.25 0 2.5 1.25 2.5 3.75V17c0 1.25-1.25 2.5-2.5 2.5H20s1.25 2.5-2.5 3.75c1.25-1.25-1.25-3.75-1.25-3.75H5c-2.5 0-3.75-1.25-3.75-2.5V4.5C1.25 2 2.5.75 5 .75Z"/><path d="M6.25 7H22.5M6.25 10.75h7.5M6.25 14.5H17.5"/></svg><svg fill="none" viewBox="0 0 22 23" id="email" xmlns="http://www.w3.org/2000/svg"><path fill-rule="evenodd" clip-rule="evenodd" d="M22 11.286v9.534c0 .733-.733 1.466-1.467 1.466H2.2c-1.467 0-2.2-.733-2.2-1.466v-9.534l11 5.133 11-5.133ZM2.2 10.553h1.467V6.886c0-.733.733-1.467 1.466-1.467H17.6c.733 0 1.467.734 1.467 1.467v3.667h1.466c.734 0 1.467-.734 1.467-1.467V5.42L11 .286 0 5.42v3.667c0 .733.733 1.467 2.2 1.467Z" fill="#EF7F1A"/></svg><svg xml:space="preserve" viewBox="0 0 16 16" id="facebook" xmlns="http://www.w3.org/2000/svg"><path d="M14 0H2C.897 0 0 .897 0 2v12c0 1.103.897 2 2 2h6v-5.5H6V8h2V6a3 3 0 0 1 3-3h2v2.5h-1c-.552 0-1-.052-1 .5v2h2.5l-1 2.5H11V16h3c1.103 0 2-.897 2-2V2c0-1.103-.897-2-2-2z"/></svg><svg fill="none" viewBox="0 0 23 23" id="form-close" xmlns="http://www.w3.org/2000/svg"><path d="m21.75 1.144-20.5 20.5m0-20.5 20.5 20.5"/></svg><svg fill="none" viewBox="0 0 31 39" id="info-modal" xmlns="http://www.w3.org/2000/svg"><path fill-rule="evenodd" clip-rule="evenodd" d="M14.624.436c8.181 0 15.454 6.363 15.454 14.545 0 8.182-10.909 23.637-15.454 23.637C10.987 38.617.078 23.163.078 14.98S6.442.436 14.624.436Z" fill="#EF7F1A"/><path d="M14.624 27.708c6.527 0 11.818-5.29 11.818-11.818 0-6.527-5.291-11.818-11.818-11.818-6.527 0-11.819 5.291-11.819 11.818 0 6.527 5.292 11.818 11.819 11.818Z" fill="#FEFEFE"/><path fill-rule="evenodd" clip-rule="evenodd" d="M21.896 12.254h-5.454l-3.637-2.727-2.727 1.818v-.91H8.26v2.728l-2.727 1.818H8.26v6.364h13.636V14.98h2.728l-2.728-2.727Zm-5.454 2.727h4.545v5.455h-4.545V14.98Zm-3.637-3.636 3.637 2.727H9.169l3.636-2.727Zm-2.727 3.636h5.455v5.455h-5.455V14.98Z" fill="#EF7F1A"/><path fill-rule="evenodd" clip-rule="evenodd" d="M21.896 12.254h-5.454l-3.637-2.727-2.727 1.818v-.91H8.26v2.728l-2.727 1.818h19.091l-2.728-2.727Zm-9.09-.91 3.636 2.728H9.169l3.636-2.727Z" fill="#5B5B5B"/></svg><svg viewBox="0 0 40 39" id="instagram" xmlns="http://www.w3.org/2000/svg"><path d="M33.212 38.651H7.015c-3.459 0-6.273-2.808-6.273-6.26V6.26C.742 2.808 3.556 0 7.015 0h26.197c3.458 0 6.272 2.808 6.272 6.26v26.132c0 3.452-2.814 6.259-6.272 6.259ZM13.742 8h13a5 5 0 0 1 5 5v13a5 5 0 0 1-5 5h-13a5 5 0 0 1-5-5V13a5 5 0 0 1 5-5Zm0-3a8 8 0 0 0-8 8v13a8 8 0 0 0 8 8h13a8 8 0 0 0 8-8V13a8 8 0 0 0-8-8h-13Zm6.5 21.5a7 7 0 1 0 0-14 7 7 0 0 0 0 14Zm0-3a4 4 0 1 1 0-8 4 4 0 0 1 0 8Zm7.5-9.5a2 2 0 1 0 0-4 2 2 0 0 0 0 4Z"/></svg><svg fill="none" viewBox="0 0 40 21" id="item-arrow" xmlns="http://www.w3.org/2000/svg"><path d="m23.385 1.75 14.615 9-14.615 9M0 10.75h37.026"/></svg><svg fill="none" viewBox="0 0 20 27" id="location" xmlns="http://www.w3.org/2000/svg"><path fill-rule="evenodd" clip-rule="evenodd" d="M10 .677c5.385 0 10 4.616 10 10 0 5.385-7.692 15.385-10 15.385-3.077 0-10-10-10-15.385 0-5.384 4.615-10 10-10Zm0 5.385c2.308 0 4.615 2.308 4.615 4.615 0 3.077-2.307 4.616-4.615 4.616-3.077 0-4.615-1.539-4.615-4.616 0-2.307 1.538-4.615 4.615-4.615Z" fill="#EF7F1A"/></svg><svg fill="none" viewBox="0 0 25 27" id="phone" xmlns="http://www.w3.org/2000/svg"><path fill-rule="evenodd" clip-rule="evenodd" d="M4.688.411s-.782 0-.782.781c-.781 0-.781.782-1.562.782 0 .78 0 .78-.781.78v1.563H.78V5.88C0 5.88 0 5.88 0 6.662v3.906l.781.782v1.562l.781.781v1.562h.782v.782h.781v.781l.781.782v.78s.781 0 0 0c.781 0 .781.782 1.563.782l.781 1.563.781.78c.782.782.782 0 .782.782 0 0 .78 0 .78.781l1.563.782v.78H11.72l.781.782c.781 0 .781.781.781.781H15.625l.781.782h1.563l1.562-.782h.782l.78-.78h.782l.781-.782c0-.781 0-.781.782-.781l.78-.782v-2.343h-.78v-.782h-.782v-.78h-.781l-1.563-1.563h-.78l-.782-.782-.781.782h-.782l-.78.78h-.782c0 .782-.781.782-.781 1.563H13.28s-.781 0-.781-.78h-.781l-1.563-1.563c0-.782-1.562-1.563-1.562-2.344h-.781v-.781l-.782-.782v-.78c-.781-.782-.781-1.563-.781-1.563 0-.782.781-.782.781-1.563h.782l.78-.781v-.781c.782-.782 1.563-.782.782-1.563V4.317l-.781-.78-.781-.782v-.781H7.03v-.782s-.781 0-.781-.78H4.687ZM12.5 9.786h.781s.781.781 1.563.781h.781c0 .782.781.782.781.782v.78s.782 0 .782.782V14.474l.78.78h2.345v-.78l-.782-.782V11.35h-.781v-.782h-.781v-.78c-.782 0-.782 0-.782-.782h-.78c0-.781-1.563-.781-1.563-.781h-.781l-.782-.782H12.5v2.344Zm0-4.687h1.562v.78H16.407s.782.782 1.563.782l.781.781h.781v.782c.782 0 .782 0 .782.78l.78.782.782 1.563v1.562l.781.781v1.563h.782c.78-.781.78 0 1.562 0V13.692l-.781-.78v-2.345l-.782-.78v-.782c-.78 0-.78-.781-.78-.781v-.782h-.782v-.78h-.781V5.88h-.782v-.781h-.78s-.782 0-.782-.782H17.187v-.78h-2.343v-.782H12.5v2.344Z" fill="#EF7F1A"/></svg><svg fill="none" viewBox="0 0 131 134" id="play" xmlns="http://www.w3.org/2000/svg"><g filter="url(#ka)"><path d="M109.752 54.111c7.225 3.724 7.225 14.054 0 17.778l-79.921 41.187c-6.655 3.43-14.58-1.401-14.58-8.889V21.813c0-7.488 7.925-12.32 14.58-8.89l79.921 41.188Z" fill="#fff"/></g><defs><filter id="ka" x=".25" y=".799" width="129.921" height="132.401" filterUnits="userSpaceOnUse" color-interpolation-filters="sRGB"><feFlood flood-opacity="0" result="BackgroundImageFix"/><feColorMatrix in="SourceAlpha" values="0 0 0 0 0 0 0 0 0 0 0 0 0 0 0 0 0 0 127 0" result="hardAlpha"/><feOffset dy="4"/><feGaussianBlur stdDeviation="7.5"/><feComposite in2="hardAlpha" operator="out"/><feColorMatrix values="0 0 0 0 0 0 0 0 0 0 0 0 0 0 0 0 0 0 0.25 0"/><feBlend in2="BackgroundImageFix" result="effect1_dropShadow_212_125"/><feBlend in="SourceGraphic" in2="effect1_dropShadow_212_125" result="shape"/></filter></defs></svg><svg fill="none" viewBox="0 0 27 24" id="reviews-comment" xmlns="http://www.w3.org/2000/svg"><path clip-rule="evenodd" d="M5 .75h18.75c1.25 0 2.5 1.25 2.5 3.75V17c0 1.25-1.25 2.5-2.5 2.5H20s1.25 2.5-2.5 3.75c1.25-1.25-1.25-3.75-1.25-3.75H5c-2.5 0-3.75-1.25-3.75-2.5V4.5C1.25 2 2.5.75 5 .75v0Z" stroke="#fff" stroke-width="1.5" stroke-miterlimit="22.926" stroke-linecap="round" stroke-linejoin="round"/><path d="M6.25 7H22.5M6.25 10.75h7.5M6.25 14.5H17.5" stroke="#fff" stroke-width="1.5" stroke-miterlimit="22.926" stroke-linecap="round" stroke-linejoin="round"/></svg><svg fill="none" viewBox="0 0 22 20" id="sample" xmlns="http://www.w3.org/2000/svg"><path d="M20.714 8.765h-20v10.37h20V8.765ZM3.677 8.765v5.926M7.38 8.765v2.222M10.344 8.765v5.926M14.048 8.765v2.222M17.01 8.765v5.926M.714 8.765V1.357M20.714 9.505V1.357M.714 3.58h20M3.677 1.357.714 3.58l2.963 2.223M17.01 1.357l3.704 2.222-3.703 2.223" stroke="#FEFEFE" stroke-width="1.429" stroke-miterlimit="22.926" stroke-linecap="round" stroke-linejoin="round"/></svg><svg fill="none" viewBox="0 0 30 17" id="spoller-arrow" xmlns="http://www.w3.org/2000/svg"><path d="m1 1.706 14 14 14-14"/></svg><svg xml:space="preserve" viewBox="0 0 512 512" id="vk" xmlns="http://www.w3.org/2000/svg"><path fill-rule="evenodd" d="M434.478 16H77.521C43.72 16 16 43.719 16 77.521v356.957C16 468.282 43.72 496 77.521 496h356.957C468.281 496 496 468.282 496 434.479V77.521C496 43.719 468.281 16 434.478 16zM365.03 269.393c1.588 15.043 54.295 46.569 50.353 70.822-1.774 10.868-20.013 8.945-36.191 9.457-14.941.482-29.553-.493-36.169-3.145-10.934-4.375-39.648-42.391-47.208-40.903-16.799 3.271-10.716 38.443-15.725 40.903-7.176 3.519-30.469 2.467-39.302 1.56-47.333-7.951-74.772-39.67-100.688-80.239-31.686-49.597-50.429-86.834-42.473-91.261 8.746-4.857 33.231-3.825 58.206-3.16 7.435.224 29.047 54.038 34.598 62.973 22.531 36.048 29.585 9.421 29.9 6.284 6.107-64.668-9.724-61.751-18.883-62.956 6.905-20.966 55.045-17.301 55.045-17.301s16.105 3.896 22.025 7.864c2.435 1.652 5.166 6.87 4.713 23.616-.643 25.215-3.203 59.608 7.878 59.777 8.547.125 22.088-19.979 33.035-40.903 9.682-18.513 17.137-36.461 20.438-37.758 3.576-1.409 19.04-1.506 34.609-1.597 15.246-.072 30.615-.199 34.616 3.16 8.064 6.805-5.959 28.878-18.892 47.196-10.587 15.061-31.02 34.885-29.885 45.611z" clip-rule="evenodd"/></svg></svg>